<svg width="280" height="71" viewBox="0 0 280 71" fill="none" xmlns="http://www.w3.org/2000/svg">
<path d="M0.291504 69.994H9.359V37.3232H21.6505V69.994H30.718V0.930496H21.6505V28.742H9.359V0.930496H0.291504V69.994Z" fill="white"/>
<path d="M54.5438 0C44.6703 0 38.726 5.99653 38.726 18.6099V52.1078C38.726 64.411 43.2598 70.9245 53.9393 70.9245C64.7195 70.9245 69.9585 64.8246 69.9585 52.0044V18.7133C69.9585 6.41009 64.6188 0 54.5438 0ZM54.3423 8.37447C58.7753 8.37447 60.7903 11.5795 60.7903 17.8862V52.9349C60.7903 59.8619 58.6745 62.55 54.3423 62.55C50.3123 62.55 47.995 59.7585 47.995 53.1417V17.8862C47.995 11.3727 50.1108 8.37447 54.3423 8.37447Z" fill="white"/>
<path d="M111.555 69.994H120.219V0.930496H107.223C104.099 18.6099 99.7672 41.769 98.7597 51.0739H98.6589C97.7521 41.769 94.3266 19.6438 91.2034 0.930496H77.8036V69.994H86.0651V44.4571C86.0651 32.5674 85.7629 16.9557 85.5614 8.89141H85.7629C87.2741 21.4014 91.7072 52.1078 94.1252 69.994H102.689C105.913 49.7299 110.245 20.7811 111.857 8.9948H111.958C111.756 16.6455 111.555 30.8098 111.555 43.0096V69.994Z" fill="white"/>
<path d="M164.659 69.994H173.324V0.930496H160.327C157.204 18.6099 152.871 41.769 151.864 51.0739H151.763C150.856 41.769 147.431 19.6438 144.308 0.930496H130.908V69.994H139.169V44.4571C139.169 32.5674 138.867 16.9557 138.666 8.89141H138.867C140.378 21.4014 144.811 52.1078 147.229 69.994H155.793C159.017 49.7299 163.349 20.7811 164.961 8.9948H165.062C164.861 16.6455 164.659 30.8098 164.659 43.0096V69.994Z" fill="white"/>
<path d="M201.435 50.04L204.458 69.994H213.928L202.543 0.930496H189.748L178.766 69.994H187.935L190.655 50.04H201.435ZM191.864 41.4588C193.375 30.2928 195.592 15.1981 195.894 9.61513H196.196C196.901 16.8523 198.513 28.3284 200.327 41.4588H191.864Z" fill="white"/>
<path d="M255.826 29.008H270.737V9.3642H255.02V0.782951H279.805V69.8465L253.71 69.5351V61.3686H270.737V37.4859H255.826V29.008Z" fill="white"/>
<path d="M217.734 31.7403H233.351V39.7012H226.802V50.2468C226.802 58.0009 227.809 62.7568 233.048 62.7568C237.28 62.7568 238.892 59.2416 238.892 53.1417V17.6794C238.892 11.2693 236.978 8.37447 232.847 8.37447C227.507 8.37447 226.903 13.1303 226.903 17.3693V19.7472H217.936V17.6794C217.936 9.71852 219.649 0 232.847 0C243.728 0 248.161 7.65075 248.161 19.0235V52.3146C248.161 63.6873 244.937 70.9245 235.366 70.9245C230.933 70.9245 224.998 72.0315 221.083 65.7679C217.169 58.7213 217.734 38.9224 217.734 31.7403Z" fill="white"/>
</svg>
